<?xml version="1.0" encoding="iso-8859-1"?>
<!-- Generator: Adobe Illustrator 19.0.0, SVG Export Plug-In . SVG Version: 6.00 Build 0)  -->
<svg version="1.1" id="Layer_1" xmlns="http://www.w3.org/2000/svg" xmlns:xlink="http://www.w3.org/1999/xlink" x="0px" y="0px"
	 viewBox="0 0 294 294" style="enable-background:new 0 0 294 294;" xml:space="preserve">
<g>
	<g>
		<path style="fill:#E8F2FB;" d="M266,289H28c-5.523,0-10-4.477-10-10V103.225h258V279C276,284.523,271.523,289,266,289z"/>
		<rect x="71.5" y="5" style="fill:#C7E9F4;" width="31" height="52"/>
		<path style="fill:#FFEDBE;" d="M237.5,31v41h-61V31h-59v41h-61V31H28c-5.523,0-10,4.477-10,10v62.225h258V41
			c0-5.523-4.477-10-10-10H237.5z"/>
		<rect x="191.5" y="5" style="fill:#C7E9F4;" width="31" height="52"/>
	</g>
	<g>
		<path style="fill:#80D0E1;" d="M71.5,62h31c2.761,0,5-2.239,5-5V5c0-2.761-2.239-5-5-5h-31c-2.761,0-5,2.239-5,5v52
			C66.5,59.761,68.739,62,71.5,62z M76.5,10h21v42h-21V10z"/>
		<path style="fill:#80D0E1;" d="M266,26h-28.5c-2.762,0-5,2.239-5,5v36h-51V31c0-2.761-2.238-5-5-5h-59c-2.761,0-5,2.239-5,5v36
			h-51V31c0-2.761-2.239-5-5-5H28c-8.271,0-15,6.729-15,15v62.225V279c0,8.271,6.729,15,15,15h238c8.272,0,15-6.729,15-15V103.225
			V41C281,32.729,274.272,26,266,26z M23,41c0-2.757,2.243-5,5-5h23.5v36c0,2.761,2.239,5,5,5h61c2.761,0,5-2.239,5-5V36h49v36
			c0,2.761,2.238,5,5,5h61c2.762,0,5-2.239,5-5V36H266c2.757,0,5,2.243,5,5v57.225H23V41z M271,279c0,2.757-2.243,5-5,5H28
			c-2.757,0-5-2.243-5-5V108.225h248V279z"/>
		<path style="fill:#80D0E1;" d="M191.5,62h31c2.762,0,5-2.239,5-5V5c0-2.761-2.238-5-5-5h-31c-2.762,0-5,2.239-5,5v52
			C186.5,59.761,188.738,62,191.5,62z M196.5,10h21v42h-21V10z"/>
		<path style="fill:#80D0E1;" d="M110.08,242.633c-9.727,0-16.028-3.425-20.686-9.453l-10.412,13.015
			c6.987,8.494,17.809,13.151,31.783,13.151c21.645,0,35.618-10.959,35.618-28.084c0-12.74-7.671-22.467-19.179-24.385
			c10.412-1.918,17.398-11.507,17.398-22.329c0-14.521-12.741-24.248-31.234-24.248c-14.248,0-27.536,5.617-33.016,13.973
			L91.86,187.15c4.247-6.986,11.097-10.96,19.453-10.96c8.082,0,13.699,3.699,13.699,11.097c0,7.809-6.576,13.425-17.672,13.425
			h-4.247v13.699h3.836c13.699,0,20.412,5.343,20.412,14.795C127.341,238.249,121.177,242.633,110.08,242.633z"/>
		<path style="fill:#80D0E1;" d="M179.673,181.123v41.509H160.22v16.576h55.62v-16.576h-17.398v-61.647h-18.769
			c-1.507,3.151-15.48,13.014-22.192,13.014v17.125C164.603,191.124,176.521,185.37,179.673,181.123z"/>
	</g>
</g>
<g>
</g>
<g>
</g>
<g>
</g>
<g>
</g>
<g>
</g>
<g>
</g>
<g>
</g>
<g>
</g>
<g>
</g>
<g>
</g>
<g>
</g>
<g>
</g>
<g>
</g>
<g>
</g>
<g>
</g>
</svg>
