<svg xmlns="http://www.w3.org/2000/svg" xmlns:xlink="http://www.w3.org/1999/xlink" version="1.1" width="45.187" height="45.188" style="enable-background:new 0 0 45.187 45.188;" xml:space="preserve"><rect id="backgroundrect" width="100%" height="100%" x="0" y="0" fill="none" stroke="none" class="" style=""/>
















<g class="currentLayer" style=""><title>Layer 1</title><g id="svg_1" class="" fill="#276a9e" fill-opacity="1" stroke-opacity="1" stroke="#e03c80">
	<g id="svg_2" fill="#276a9e" fill-opacity="1" stroke="#e03c80">
		<path d="M0,18.961h4.842V6.052c0-0.446,0.362-0.807,0.807-0.807H18.56V0.404H5.649C2.535,0.404,0,2.939,0,6.053V18.961z" id="svg_3" fill="#276a9e" fill-opacity="1" stroke="#e03c80"/>
		<path d="M39.539,0.403h-12.91v4.841h12.91c0.445,0,0.807,0.362,0.807,0.807v12.91h4.842V6.052    C45.189,2.938,42.654,0.403,39.539,0.403z" id="svg_4" fill="#276a9e" fill-opacity="1" stroke="#e03c80"/>
		<path d="M4.842,39.136V26.225H0v12.911c0,3.113,2.535,5.648,5.649,5.648H18.56v-4.842H5.649    C5.204,39.942,4.842,39.58,4.842,39.136z" id="svg_5" fill="#276a9e" fill-opacity="1" stroke="#e03c80"/>
		<path d="M40.346,39.136c0,0.446-0.362,0.807-0.807,0.807H26.628v4.842h12.91c3.115,0,5.648-2.536,5.648-5.65V26.225h-4.842    L40.346,39.136L40.346,39.136z" id="svg_6" fill="#276a9e" fill-opacity="1" stroke="#e03c80"/>
		<circle cx="22.5939998626709" cy="22.5939998626709" r="6.454999923706055" id="svg_7" fill="#276a9e" fill-opacity="1" stroke="#e03c80"/>
	</g>
</g><g id="svg_8" class="">
</g><g id="svg_9" class="">
</g><g id="svg_10" class="">
</g><g id="svg_11" class="">
</g><g id="svg_12" class="">
</g><g id="svg_13" class="">
</g><g id="svg_14" class="">
</g><g id="svg_15" class="">
</g><g id="svg_16" class="">
</g><g id="svg_17" class="">
</g><g id="svg_18" class="">
</g><g id="svg_19" class="">
</g><g id="svg_20" class="">
</g><g id="svg_21" class="">
</g><g id="svg_22" class="">
</g></g></svg>