<svg xmlns="http://www.w3.org/2000/svg" version="1.0" width="252" height="340" preserveAspectRatio="xMidYMid meet" style=""><rect id="backgroundrect" width="100%" height="100%" x="0" y="0" fill="none" stroke="none"/>
<metadata>
Created by potrace 1.15, written by Peter Selinger 2001-2017
</metadata>

<g class="currentLayer" style=""><title>Layer 1</title><g transform="translate(0,340) scale(0.10000000149011612,-0.10000000149011612) " fill="#f4932c" stroke="#eb1a1a" id="svg_1" class="selected" fill-opacity="1" stroke-opacity="1">
<path d="M990.3846206665039,3276.2841629981995 c-171,-16 -263,-49 -342,-122 c-58,-53 -84,-95 -116,-182 c-40,-113 -51,-203 -52,-418 c0,-168 -2,-197 -15,-197 c-23,0 -77,-36 -95,-64 c-19,-28 -12,-66 11,-66 c8,0 42,9 75,20 c34,12 64,19 66,16 c3,-3 2,-57 -3,-121 c-5,-63 -6,-115 -2,-115 c5,0 8,24 8,53 c0,59 26,267 35,275 c11,11 17,-9 31,-99 c26,-174 37,-390 31,-614 c-7,-286 -47,-827 -62,-822 c-21,7 -59,844 -47,1050 c4,71 4,130 1,132 c-3,2 -11,-98 -18,-223 c-9,-155 -18,-239 -28,-265 c-14,-35 -14,-45 1,-110 c22,-100 38,-314 25,-339 c-20,-37 -39,-193 -39,-320 c0,-236 32,-374 105,-456 c101,-112 240,-173 440,-193 c140,-14 367,-6 470,16 c101,21 206,76 270,142 c110,111 140,226 131,504 c-3,97 -13,212 -21,255 c-11,53 -15,125 -13,216 c2,124 -4,175 -16,137 c-2,-8 -12,-117 -21,-243 c-17,-241 -23,-286 -35,-286 c-16,0 -48,406 -56,720 c-9,331 22,797 53,807 c11,4 27,-100 21,-138 c-4,-20 566,-633 592,-637 c9,-2 22,4 29,12 c28,33 -25,130 -84,153 c-12,4 -126,117 -254,251 c-128,133 -240,242 -248,242 c-9,0 -13,3 -10,6 c4,4 33,-1 65,-10 c62,-17 87,-14 96,10 c10,27 -14,55 -69,79 l-53,24 l-4,248 c-5,267 -13,316 -65,421 c-51,101 -174,191 -309,226 c-120,31 -316,41 -479,25 zm-235,-147 c0,-18 -11,-38 -31,-58 c-17,-16 -46,-55 -65,-86 c-20,-32 -42,-58 -49,-58 c-36,0 -45,12 -45,60 c0,45 4,53 58,109 c50,53 62,61 95,61 c34,0 37,-2 37,-28 zm893,19 c14,-5 46,-35 71,-66 c39,-48 46,-64 46,-100 c0,-40 -2,-44 -31,-50 c-17,-4 -32,-5 -33,-3 c-1,1 -15,25 -30,52 c-16,27 -44,65 -62,86 c-42,46 -47,90 -10,90 c14,0 36,-4 49,-9 zm-263,-392 c47,-11 117,-36 157,-55 c91,-43 193,-134 193,-173 c0,-14 -14,-123 -32,-242 l-31,-217 l-31,10 c-78,22 -274,50 -401,55 c-155,6 -323,-7 -479,-38 c-54,-11 -101,-18 -103,-15 c-3,2 -18,96 -34,208 c-15,111 -31,215 -33,230 c-7,34 56,107 136,158 c65,43 193,87 288,100 c97,13 273,3 370,-21 zm138,-805 c21,-15 22,-20 22,-208 c0,-136 -3,-195 -12,-204 c-17,-17 -719,-17 -736,0 c-9,9 -12,68 -12,204 c0,188 1,193 22,208 c19,14 70,16 358,16 c288,0 339,-2 358,-16 zm-568,-999 c128,-25 335,-25 450,-1 c47,10 127,33 178,51 l92,33 l-6,-206 c-3,-114 -9,-231 -13,-261 l-6,-55 l-75,-37 c-263,-132 -533,-131 -820,2 l-87,40 l-6,187 c-4,103 -7,219 -7,258 l0,72 l103,-33 c56,-18 145,-40 197,-50 z" id="svg_2" fill="#f4932c" fill-opacity="1" stroke="#eb1a1a" stroke-opacity="1"/>
</g></g></svg>