<?xml version="1.0" encoding="iso-8859-1"?>
<!-- Generator: Adobe Illustrator 16.0.0, SVG Export Plug-In . SVG Version: 6.00 Build 0)  -->
<!DOCTYPE svg PUBLIC "-//W3C//DTD SVG 1.1//EN" "http://www.w3.org/Graphics/SVG/1.1/DTD/svg11.dtd">
<svg version="1.1" id="Capa_1" xmlns="http://www.w3.org/2000/svg" xmlns:xlink="http://www.w3.org/1999/xlink" x="0px" y="0px"
	 width="360.789px" height="360.789px" viewBox="0 0 360.789 360.789" style="enable-background:new 0 0 360.789 360.789;"
	 xml:space="preserve">
<g>
	<g>
		<path d="M241.263,308.145V52.152c0-15.249-9.032-19.153-20.165-8.732l-38.784,36.365c0,0.078-20.714,0.116-41.433,0.139
			c-22.882,0.028-41.433,12.2-41.433,27.229v27.206h-55.25C19.791,134.358,0,154.149,0,178.561v3.687
			c0,24.409,19.785,44.198,44.198,44.198h55.25c0,0,0,13.385,0,29.899c0,16.494,18.55,29.883,41.433,29.883h41.433
			c0-0.164,37.826,31.751,37.826,31.751C231.802,327.785,241.263,323.401,241.263,308.145z"/>
		<path d="M281.494,235.558c1.947,1.127,4.079,1.651,6.171,1.651c4.332,0,8.548-2.248,10.849-6.279
			c7.068-12.359,11.192-25.876,12.234-40.15c1.611-22.025-4.561-44.032-17.372-61.979c-4-5.61-11.806-6.899-17.417-2.894
			c-5.594,4.001-6.9,11.792-2.896,17.402c9.429,13.214,13.981,29.424,12.803,45.655c-0.781,10.523-3.803,20.478-9.017,29.574
			C273.431,224.518,275.507,232.14,281.494,235.558z"/>
		<path d="M310.476,82.695c-5.498-4.166-13.325-3.074-17.48,2.413c-4.156,5.496-3.09,13.322,2.412,17.482
			c27.672,20.975,42.695,54.136,40.167,88.718c-1.904,26.005-13.541,50.033-32.753,67.642c-5.073,4.653-5.41,12.552-0.749,17.625
			c2.436,2.692,5.811,4.048,9.185,4.048c3.018,0,6.039-1.082,8.424-3.282c23.92-21.925,38.403-51.841,40.764-84.221
			C363.602,150.076,344.911,108.799,310.476,82.695z"/>
	</g>
</g>
<g>
</g>
<g>
</g>
<g>
</g>
<g>
</g>
<g>
</g>
<g>
</g>
<g>
</g>
<g>
</g>
<g>
</g>
<g>
</g>
<g>
</g>
<g>
</g>
<g>
</g>
<g>
</g>
<g>
</g>
</svg>
