<?xml version="1.0" encoding="iso-8859-1"?>
<!-- Generator: Adobe Illustrator 19.0.0, SVG Export Plug-In . SVG Version: 6.00 Build 0)  -->
<svg version="1.1" id="Layer_1" xmlns="http://www.w3.org/2000/svg" xmlns:xlink="http://www.w3.org/1999/xlink" x="0px" y="0px"
	 viewBox="0 0 512 512" style="enable-background:new 0 0 512 512;" xml:space="preserve">
<path style="fill:#00384E;" d="M310.624,0H64v512h384V137.376L310.624,0z M320,54.624L393.376,128H320V54.624z M96,480V32h192v128
	h128v320H96z"/>
<polygon style="fill:#72C6EF;" points="384,448 128,448 128,64 288,64 288,160 384,160 "/>
<path style="fill:#00384E;" d="M208,258.448V336c-17.68,0-32,14.32-32,32s14.32,32,32,32s32-14.32,32-32v-82.448l64-10.656V320
	c-17.68,0-32,14.32-32,32s14.32,32,32,32s32-14.32,32-32V237.104L208,258.448z"/>
<g>
</g>
<g>
</g>
<g>
</g>
<g>
</g>
<g>
</g>
<g>
</g>
<g>
</g>
<g>
</g>
<g>
</g>
<g>
</g>
<g>
</g>
<g>
</g>
<g>
</g>
<g>
</g>
<g>
</g>
</svg>
