<svg xmlns="http://www.w3.org/2000/svg" xmlns:xlink="http://www.w3.org/1999/xlink" version="1.1" style="" xml:space="preserve" width="66.307" height="66.307"><rect id="backgroundrect" width="100%" height="100%" x="0" y="0" fill="none" stroke="none"/>
















<g class="currentLayer" style=""><title>Layer 1</title><g id="svg_1" class="" transform="rotate(179.8238067626953 33.15351104736328,33.15325164794922) ">
	<path d="M64.702,30.366L37.12,14.442c-0.995-0.574-2.221-0.574-3.217,0s-1.609,1.639-1.609,2.787v13.072L4.827,14.442   c-0.997-0.574-2.222-0.574-3.218,0S0,16.081,0,17.229v31.849c0,1.148,0.613,2.211,1.609,2.785c0.498,0.287,1.053,0.432,1.608,0.432   s1.111-0.145,1.609-0.432l27.466-15.857v13.072c0,1.148,0.612,2.211,1.608,2.785c0.498,0.287,1.055,0.432,1.609,0.432   s1.111-0.145,1.607-0.432l27.582-15.924c0.996-0.574,1.609-1.637,1.609-2.787C66.311,32.004,65.698,30.94,64.702,30.366z" id="svg_2"/>
</g><g id="svg_3">
</g><g id="svg_4">
</g><g id="svg_5">
</g><g id="svg_6">
</g><g id="svg_7">
</g><g id="svg_8">
</g><g id="svg_9">
</g><g id="svg_10">
</g><g id="svg_11">
</g><g id="svg_12">
</g><g id="svg_13">
</g><g id="svg_14">
</g><g id="svg_15">
</g><g id="svg_16">
</g><g id="svg_17">
</g></g></svg>