<svg xmlns="http://www.w3.org/2000/svg" xmlns:xlink="http://www.w3.org/1999/xlink" version="1.1" style="enable-background:new 0 0 512 512;" xml:space="preserve" width="512" height="512"><rect id="backgroundrect" width="100%" height="100%" x="0" y="0" fill="none" stroke="none"/>


















<g class="currentLayer" style=""><title>Layer 1</title><g id="svg_1" class="" fill="#b80404" fill-opacity="1">
	<g id="svg_2" fill="#b80404" fill-opacity="1">
		<path d="M365.379,172.605l-22.165,22.165c23.295,23.296,36.124,54.269,36.124,87.215c0,68.008-55.329,123.338-123.338,123.338    s-123.338-55.329-123.338-123.338c0-32.946,12.829-63.919,36.124-87.215l-22.165-22.165    c-29.216,29.215-45.306,68.062-45.306,109.38c0,85.294,69.391,154.685,154.685,154.685s154.685-69.391,154.685-154.685    C410.685,240.666,394.595,201.82,365.379,172.605z" id="svg_3" fill="#b80404" fill-opacity="1"/>
	</g>
</g><g id="svg_4" class="" fill="#b80404" fill-opacity="1">
	<g id="svg_5" fill="#b80404" fill-opacity="1">
		<rect x="240.32699584960938" y="91" width="31.347000122070312" height="190.9759979248047" id="svg_6" fill="#b80404" fill-opacity="1"/>
	</g>
</g><g id="svg_10">
</g><g id="svg_11">
</g><g id="svg_12">
</g><g id="svg_13">
</g><g id="svg_14">
</g><g id="svg_15">
</g><g id="svg_16">
</g><g id="svg_17">
</g><g id="svg_18">
</g><g id="svg_19">
</g><g id="svg_20">
</g><g id="svg_21">
</g><g id="svg_22">
</g><g id="svg_23">
</g><g id="svg_24">
</g></g></svg>