<svg xmlns="http://www.w3.org/2000/svg" xmlns:xlink="http://www.w3.org/1999/xlink" version="1.1" style="" xml:space="preserve" width="356.39080449690323" height="356.39080449690334"><rect id="backgroundrect" width="100%" height="100%" x="0" y="0" fill="none" stroke="none"/>
















<g class="currentLayer" style=""><title>Layer 1</title><g id="svg_1" class="" fill-opacity="1" fill="#f28b46">
	<path d="M167.66522267525264,33.90804672241211 C92.9598978399435,33.90804672241211 32.18390655517578,92.62153505618409 32.18390655517578,164.79164903485784 s60.77599128476772,130.88360231244573 135.48131612007685,130.88360231244573 s135.48131612007685,-58.71348833377198 135.48131612007685,-130.88360231244573 S242.36974632952246,33.90804672241211 167.66522267525264,33.90804672241211 zM167.66522267525264,272.4547160906201 C106.21303459325401,272.4547160906201 56.21933773637001,224.15761266016625 56.21933773637001,164.79164903485784 S106.21303459325401,57.1278079870534 167.66522267525264,57.1278079870534 s111.44588493888264,48.29710343045389 111.44588493888264,107.66384104780442 S229.11660957621194,272.4547160906201 167.66522267525264,272.4547160906201 z" id="svg_2" fill="#f28b46"/>
	<path d="M166.57241173754767,82.58827621373258 c0.21391533751262878,0.016253832885248915 0.42622831294651103,0.02554173739110543 0.6409448314985132,0.018575809011713035 c4.22142289645708,-0.02476774534895073 7.608816330926719,-3.343645622108346 7.5911903480605085,-7.412521787715655 c-0.026438974299313668,-4.077390078071011 -3.468312719446327,-7.357568352722671 -7.681723805509677,-7.333574599415874 c-4.211808723984602,0.02554173739110543 -7.608816330926719,3.343645622108346 -7.582377356627406,7.421809692221512 C159.56047528095394,79.14323763410196 162.65383527397367,82.29648121384025 166.57241173754767,82.58827621373258 z" id="svg_3" fill="#f28b46"/>
	<path d="M81.055148775898,193.04622853371552 c-3.8544819804241808,1.6633088985904716 -5.580225939233927,6.0232060720479526 -3.856084342502927,9.739141866432712 c1.1809408520360098,2.5580436993213156 3.687035143195195,4.143953393696316 6.389418789000798,4.345965316698695 c1.2242046281621595,0.0905570689321011 2.4948777566079605,-0.10371493364873116 3.6934445915101803,-0.6277075461874698 c3.8448678079517036,-1.6586649463375427 5.5714129478008205,-6.017014135710713 3.856084342502927,-9.739915858474866 C89.41467174071735,193.048550509842 84.90161894592845,191.3805976589986 81.055148775898,193.04622853371552 z" id="svg_4" fill="#f28b46"/>
	<path d="M78.29828481941502,149.9108780323914 c3.6605961688958804,0.2739931829227674 7.091253379491671,-2.037921046993351 7.988576143589588,-5.6006064170314795 v0.007739920421547103 c1.0046810233739187,-3.9535513513262575 -1.49981090570652,-7.951220249055333 -5.59384601690327,-8.922580261959494 c-4.09403511119675,-0.9636200924826137 -8.223322188125918,1.4574270153773186 -9.227202030460463,5.4125263507878865 c-1.0054822044132916,3.9558733274527214 1.4990097246671468,7.94425432067594 5.59384601690327,8.914840341537948 C77.47066480574256,149.81877297937498 77.88808012725598,149.87991835070522 78.29828481941502,149.9108780323914 z" id="svg_5" fill="#f28b46"/>
	<path d="M106.34683182682932,88.48067763065637 c-3.3088776926110723,2.520118089255735 -3.871306782251016,7.159426389931065 -1.2578542318158312,10.35678751607217 c1.3740254825249367,1.6764667633071013 3.3569485549734606,2.6230590308623114 5.4055684726505815,2.77553546316679 c1.8491258388732095,0.13854457554569305 3.7487260832269262,-0.36300226777055916 5.314233834162043,-1.5626899331103594 c3.310480054689818,-2.5247620415086627 3.8721079632903903,-7.157104413804601 1.2570530507764581,-10.355239531987861 C114.45878985048238,86.49848401069818 109.65651070047974,85.95514159710557 106.34683182682932,88.48067763065637 z" id="svg_6" fill="#f28b46"/>
	<path d="M263.83819346056515,139.48056127231453 c-1.0615648771694117,-3.940393486609627 -5.236519273342849,-6.3002952231393365 -9.307320134397777,-5.266241854820645 c-4.085222119763645,1.0263134478971452 -6.52802310881235,5.051846059143791 -5.459247602288582,8.99920547413281 l0.0016023620787462825,-0.007739920421547103 c0.8436436344599175,3.1261538582628723 3.6365607377146865,5.256179958272634 6.7940152138842365,5.492247531129819 c0.8212105653574694,0.06037137928806737 1.6688601050142529,-0.006965928379392393 2.519714368828528,-0.21826575588762828 C262.4657703401189,147.4534532985502 264.90216188085265,143.420180766882 263.83819346056515,139.48056127231453 z" id="svg_7" fill="#f28b46"/>
	<path d="M254.94748746664135,192.04700480729377 c-3.8737103253691365,-1.6129994158504155 -8.367534775213086,0.10758489385950468 -10.036394880227336,3.843644481340289 c-1.6688601050142529,3.7430255158601766 0.11216534551223978,8.07583296784224 3.9786650415270177,9.695798312072048 c0.7987774962550217,0.33436456221083494 1.6191868805731175,0.5193486602858104 2.4411986269699604,0.5812680236581874 c3.157454476169548,0.2368415648993413 6.2628321847798425,-1.4628449596724016 7.59679861533612,-4.424138512956321 C260.59661497526145,198.00055159554782 258.8147883436955,193.6600042231442 254.94748746664135,192.04700480729377 z" id="svg_8" fill="#f28b46"/>
	<path d="M228.1952513809328,87.64167025696068 c-3.3457320204222367,-2.4760005428529164 -8.131987549637381,-1.8730607420143977 -10.702176323946416,1.359904018065825 c-2.562176963915305,3.224450847616521 -1.9372557532042547,7.856019227870304 1.4012656378636235,10.338985699102613 l0.006409448314985134,0.0007739920421547103 c1.2137892746503085,0.9040227052367009 2.6294761712226484,1.394733659962787 4.05317487818872,1.4999965776958282 c2.4876671272536024,0.18575809011713046 5.016995668554609,-0.8088216840516718 6.6506038078364424,-2.8599005957616526 C232.1667057931055,94.74769119598307 231.54098340135508,90.124636728193 228.1952513809328,87.64167025696068 z" id="svg_9" fill="#f28b46"/>
	<path d="M213.7459513358382,113.79795732953694 c-18.121913929581073,13.045635870517634 -39.93647126963295,28.8985408779304 -47.15751597750307,34.76849652563172 c-3.834452454439852,0.1811141378642022 -7.615225779241704,1.6687268428855544 -10.543542478150535,4.497667756961018 c-6.2580250985436034,6.045651841270438 -6.2580250985436034,15.847487063117685 0,21.890816928261657 c6.2580250985436034,6.045651841270438 16.403380600125686,6.045651841270438 22.661405698669288,0 c2.929117879948203,-2.8289409140754644 4.468987837623381,-6.482957345087849 4.655663019797322,-10.18728325884029 c6.069747554290916,-6.9697983396031615 22.481941145849706,-28.044053663391598 35.98985346968086,-45.55407563305759 c1.188151481390368,-1.5402441638878726 1.0271140924763666,-3.6903940569936564 -0.3789586316234959,-5.047976098933018 C217.56518135052997,112.80569953149461 215.34030160419078,112.65090112306366 213.7459513358382,113.79795732953694 z" id="svg_10" fill="#f28b46"/>
</g><g id="svg_11">
</g><g id="svg_12">
</g><g id="svg_13">
</g><g id="svg_14">
</g><g id="svg_15">
</g><g id="svg_16">
</g><g id="svg_17">
</g><g id="svg_18">
</g><g id="svg_19">
</g><g id="svg_20">
</g><g id="svg_21">
</g><g id="svg_22">
</g><g id="svg_23">
</g><g id="svg_24">
</g><g id="svg_25">
</g></g></svg>